<svg width="103" height="28" viewBox="0 0 103 28" fill="none" xmlns="http://www.w3.org/2000/svg">
<path d="M59.2127 24.4205C57.3103 24.4205 55.6365 23.9995 54.1914 23.1577C52.7463 22.3092 51.6194 21.1061 50.8107 19.5483C50.002 17.9839 49.5977 16.1278 49.5977 13.9801C49.5977 12.3295 49.8429 10.858 50.3334 9.56534C50.824 8.2661 51.5067 7.16572 52.3817 6.26421C53.2634 5.36269 54.2875 4.67661 55.4542 4.20597C56.6209 3.73532 57.8737 3.5 59.2127 3.5C60.3661 3.5 61.4433 3.66903 62.4443 4.0071C63.4518 4.33854 64.35 4.80919 65.1389 5.41903C65.9277 6.02225 66.5707 6.74479 67.0678 7.58665C67.5716 8.42188 67.8931 9.34659 68.0323 10.3608H63.6772C63.538 9.87689 63.3358 9.44934 63.0707 9.07813C62.8121 8.70028 62.4907 8.3821 62.1062 8.12358C61.7283 7.85843 61.3008 7.65625 60.8235 7.51705C60.3529 7.37784 59.8391 7.30824 59.2823 7.30824C58.2482 7.30824 57.3301 7.56676 56.5281 8.08381C55.726 8.60085 55.0962 9.35322 54.6388 10.3409C54.1881 11.322 53.9627 12.5218 53.9627 13.9403C53.9627 15.3589 54.1782 16.5653 54.609 17.5597C55.0465 18.554 55.6597 19.313 56.4485 19.8366C57.2373 20.3537 58.1654 20.6122 59.2326 20.6122C60.2269 20.6122 61.0754 20.4332 61.7781 20.0753C62.4807 19.7107 63.0176 19.2069 63.3889 18.5639C63.7667 17.9143 63.9556 17.1652 63.9556 16.3168L64.771 16.4858H59.5011V13.2443H68.2014V24.142H65.2582L65.0096 21.8153H64.9002C64.2175 22.6439 63.4087 23.2869 62.4741 23.7443C61.546 24.1951 60.4589 24.4205 59.2127 24.4205Z" fill="black" fill-opacity="0.85"/>
<path d="M34.5961 24.1424H29.9824L37.0123 3.77881H42.5606L49.5804 24.1424H44.9668L39.8659 8.43222H39.7069L34.5961 24.1424ZM34.3077 16.1382H45.2054V19.499H34.3077V16.1382Z" fill="black" fill-opacity="0.85"/>
<path d="M16.3369 7.32853V3.77881H33.0613V7.32853H26.827V24.1424H22.5713V7.32853H16.3369Z" fill="black" fill-opacity="0.85"/>
<path d="M0 24.1424V3.77881H8.15341C9.65152 3.77881 10.901 4.00087 11.902 4.445C12.9029 4.88913 13.6553 5.50561 14.1591 6.29443C14.6629 7.07663 14.9148 7.97815 14.9148 8.99898C14.9148 9.79443 14.7557 10.4938 14.4375 11.097C14.1193 11.6936 13.6818 12.1841 13.125 12.5686C12.5748 12.9464 11.9451 13.2149 11.2358 13.374V13.5728C12.0114 13.606 12.7372 13.8247 13.4134 14.2291C14.0961 14.6334 14.6496 15.2002 15.0739 15.9294C15.4981 16.6519 15.7102 17.5137 15.7102 18.5146C15.7102 19.5951 15.4418 20.5596 14.9048 21.4081C14.3745 22.2499 13.589 22.9161 12.5483 23.4067C11.5076 23.8972 10.2249 24.1424 8.70028 24.1424H0ZM4.3054 20.6226H7.81534C9.01515 20.6226 9.89015 20.3939 10.4403 19.9365C10.9905 19.4725 11.2656 18.856 11.2656 18.087C11.2656 17.5236 11.1297 17.0264 10.858 16.5956C10.5862 16.1647 10.1984 15.8266 9.6946 15.5814C9.19744 15.3361 8.60417 15.2135 7.91477 15.2135H4.3054V20.6226ZM4.3054 12.3001H7.49716C8.08712 12.3001 8.6108 12.1974 9.06818 11.9919C9.5322 11.7798 9.89678 11.4815 10.1619 11.097C10.4337 10.7125 10.5696 10.2518 10.5696 9.71489C10.5696 8.97909 10.3078 8.38582 9.78409 7.93506C9.26705 7.4843 8.53125 7.25892 7.5767 7.25892H4.3054V12.3001Z" fill="#2AD162"/>
<path fill-rule="evenodd" clip-rule="evenodd" d="M91.9076 1.4038C90.4808 0.8928 88.9746 1.24747 87.7426 2.02913C86.5048 2.8143 85.4431 4.08247 84.8003 5.63063C84.6285 6.04484 84.4929 6.46275 84.3929 6.87905L82.3112 7.44675C81.9149 7.5546 81.5542 7.76511 81.2653 8.05702C80.9765 8.34893 80.7698 8.7119 80.6662 9.10925L77.6597 20.6371C77.5778 20.9507 77.5621 21.2779 77.6137 21.5979C77.6653 21.9179 77.783 22.2236 77.9593 22.4956C78.1355 22.7676 78.3665 22.9999 78.6376 23.1776C78.9086 23.3554 79.2136 23.4748 79.5333 23.5281L84.2992 24.3214V24.4999C84.2992 25.1188 84.545 25.7123 84.9826 26.1498C85.4202 26.5874 86.0137 26.8333 86.6325 26.8333H95.9658C96.5847 26.8333 97.1782 26.5874 97.6158 26.1498C98.0533 25.7123 98.2992 25.1188 98.2992 24.4999V12.3269C98.2992 11.924 98.1948 11.5279 97.9963 11.1773C97.7978 10.8266 97.5119 10.5334 97.1663 10.3261L94.361 8.64291C94.8487 7.2405 94.9305 5.8024 94.6073 4.5503C94.2468 3.15263 93.3519 1.91947 91.9076 1.4038ZM92.2969 7.41763C92.5167 6.56857 92.5145 5.77404 92.3486 5.13363C92.1339 4.30063 91.6754 3.7978 91.1236 3.60063C90.5531 3.39647 89.7994 3.4863 88.9921 3.99963C88.2859 4.44783 87.6105 5.18224 87.1358 6.13104L87.3978 6.05959C87.8069 5.94797 88.2386 5.94993 88.6466 6.06525C89.0547 6.18056 89.4236 6.40488 89.7137 6.71409L90.3518 7.39425C90.6941 7.24223 91.068 7.17484 91.4419 7.19779C91.739 7.21603 92.0291 7.2909 92.2969 7.41763Z" fill="black" fill-opacity="0.85"/>
<path d="M91.4425 7.19848C91.0687 7.17553 90.6948 7.24291 90.3525 7.39494L88.2933 8.61061L85.4326 10.3268C85.0871 10.5341 84.8012 10.8273 84.6027 11.178C84.4041 11.5286 84.2998 11.9247 84.2998 12.3276V21.9573V24.3221V24.5006C84.2998 25.1194 84.5456 25.7129 84.9832 26.1505C85.4208 26.5881 86.0143 26.8339 86.6331 26.8339H95.9665C96.5853 26.8339 97.1788 26.5881 97.6164 26.1505C98.054 25.7129 98.2998 25.1194 98.2998 24.5006V12.3276C98.2998 11.9247 98.1955 11.5286 97.9969 11.178C97.7984 10.8273 97.5125 10.5341 97.167 10.3268L92.5003 7.52677C92.1792 7.33403 91.8163 7.22142 91.4425 7.19848Z" fill="#2AD162"/>
</svg>
