<svg width="150" height="150" viewBox="0 0 150 150" fill="none" xmlns="http://www.w3.org/2000/svg">
<path d="M53.5717 17.6744V33.1205C53.5717 33.8714 54.1086 34.5146 54.86 34.6584C65.058 36.4813 72.7146 45.5623 72.3198 56.3603C71.9269 67.4079 62.9096 76.3822 51.8887 76.811C41.0832 77.2045 32.0306 69.5529 30.1691 59.399C30.1034 59.0386 29.9135 58.7126 29.6324 58.4775C29.3512 58.2423 28.9966 58.1129 28.63 58.1117H13.1747C12.2449 58.1117 11.5287 58.8987 11.6356 59.7916C13.7478 79.8144 30.7794 95.3673 51.426 95.1882C72.9663 95.01 90.5347 77.4189 90.714 55.8953C90.8923 35.2654 75.2912 18.247 55.253 16.1356C54.3585 16.0288 53.5717 16.7453 53.5717 17.6744Z" fill="#F0F3F5"/>
<path fill-rule="evenodd" clip-rule="evenodd" d="M25.5557 27.3643L36.4698 38.269C36.7369 38.5319 37.0893 38.6907 37.4633 38.7169C37.8373 38.7432 38.2084 38.635 38.5096 38.4119C41.05 36.5167 44.0549 35.2302 47.3115 34.6214C48.0629 34.4794 48.5998 33.8705 48.5998 33.0844V17.6745C48.5998 16.7454 47.8121 16.0298 46.8823 16.1365C39.0763 16.9634 31.6915 20.0867 25.6635 25.1107C24.9482 25.6834 24.912 26.721 25.5557 27.3633V27.3643ZM19.7949 31.1186C15.3587 36.8396 12.4244 43.7747 11.6377 51.3558C11.529 52.2496 12.2805 53.0357 13.1759 53.0357H28.5977C29.3492 53.0357 29.9929 52.4993 30.1368 51.7484C30.6353 48.9387 31.7068 46.2616 33.2848 43.8833C33.4766 43.5818 33.5631 43.2254 33.5308 42.8696C33.4985 42.5138 33.3493 42.1787 33.1064 41.9166L22.1208 31.0109C21.4771 30.3324 20.368 30.403 19.7949 31.1186ZM61.0159 89.7187H81.2325C82.3778 89.7187 83.3076 90.6478 83.3438 91.8284V131.765C83.3428 132.325 83.1201 132.861 82.7243 133.256C82.3286 133.652 81.7921 133.874 81.2325 133.875H61.0159C60.4562 133.874 59.9197 133.652 59.524 133.256C59.1283 132.861 58.9055 132.325 58.9046 131.765V91.8284C58.9055 91.2691 59.1283 90.7331 59.524 90.3377C59.9197 89.9422 60.4562 89.7197 61.0159 89.7187ZM108.713 106.309H88.5686C87.9996 106.311 87.4544 106.537 87.052 106.939C86.6496 107.341 86.4228 107.886 86.4211 108.454V131.695C86.4228 132.263 86.6495 132.808 87.0517 133.21C87.4539 133.612 87.9989 133.838 88.5677 133.84H108.713C109.282 133.838 109.827 133.612 110.229 133.21C110.631 132.808 110.858 132.263 110.859 131.695V108.454C110.858 107.886 110.631 107.341 110.229 106.939C109.827 106.537 109.282 106.311 108.713 106.309ZM116.191 117.501H136.158C136.745 117.504 137.308 117.738 137.723 118.153C138.138 118.568 138.373 119.13 138.376 119.717V131.588C138.373 132.175 138.138 132.737 137.723 133.152C137.308 133.567 136.745 133.801 136.158 133.804H116.191C115.604 133.802 115.041 133.567 114.626 133.152C114.21 132.737 113.976 132.175 113.973 131.588V119.717C113.976 119.13 114.21 118.568 114.626 118.153C115.041 117.738 115.604 117.504 116.191 117.501Z" fill="#F0F3F5"/>
<path fill-rule="evenodd" clip-rule="evenodd" d="M24.66 64.0109C21.4768 64.0109 18.863 66.6226 18.863 69.8034V114.639C18.863 117.82 21.4768 120.432 24.6591 120.432H93.8972C97.0841 120.432 99.6897 117.853 99.658 114.646V69.8043C99.658 66.6226 97.0442 64.0109 93.8619 64.0109H24.6591H24.66ZM93.8972 121.861H24.66C20.6855 121.861 17.4316 118.61 17.4316 114.639V69.8043C17.4316 65.8329 20.6864 62.5815 24.66 62.5815H93.8619C97.8346 62.5815 101.089 65.8329 101.089 69.8034V114.636C101.127 118.65 97.8663 121.861 93.8972 121.861Z" fill="#999999"/>
<path d="M24.8754 71.6995C25.369 71.6995 25.8423 71.5036 26.1913 71.1549C26.5403 70.8061 26.7364 70.3332 26.7364 69.84C26.7364 69.3468 26.5403 68.8738 26.1913 68.5251C25.8423 68.1764 25.369 67.9805 24.8754 67.9805C24.382 67.9805 23.9087 68.1763 23.5598 68.525C23.2109 68.8736 23.0149 69.3465 23.0149 69.8395C23.0149 70.3326 23.2109 70.8055 23.5598 71.1541C23.9087 71.5027 24.382 71.6995 24.8754 71.6995ZM30.9223 71.6995C31.4158 71.6995 31.8892 71.5036 32.2382 71.1549C32.5872 70.8061 32.7832 70.3332 32.7832 69.84C32.7832 69.3468 32.5872 68.8738 32.2382 68.5251C31.8892 68.1764 31.4158 67.9805 30.9223 67.9805C30.4288 67.9805 29.9556 68.1763 29.6067 68.525C29.2578 68.8736 29.0618 69.3465 29.0618 69.8395C29.0618 70.3326 29.2578 70.8055 29.6067 71.1541C29.9556 71.5027 30.4288 71.6995 30.9223 71.6995ZM36.9701 71.6995C37.4636 71.6995 37.937 71.5036 38.286 71.1549C38.635 70.8061 38.831 70.3332 38.831 69.84C38.831 69.3468 38.635 68.8738 38.286 68.5251C37.937 68.1764 37.4636 67.9805 36.9701 67.9805C36.4766 67.9805 36.0034 68.1763 35.6545 68.525C35.3056 68.8736 35.1096 69.3465 35.1096 69.8395C35.1096 70.3326 35.3056 70.8055 35.6545 71.1541C36.0034 71.5027 36.4766 71.6995 36.9701 71.6995Z" fill="#999999"/>
<path fill-rule="evenodd" clip-rule="evenodd" d="M17.5393 76.4891C17.5393 76.2996 17.6147 76.1178 17.7488 75.9837C17.8829 75.8497 18.0648 75.7744 18.2545 75.7744H100.159C100.349 75.7744 100.531 75.8497 100.665 75.9837C100.799 76.1178 100.875 76.2996 100.875 76.4891C100.875 76.6786 100.799 76.8604 100.665 76.9945C100.531 77.1285 100.349 77.2038 100.159 77.2038H18.2554C18.1615 77.2038 18.0685 77.1853 17.9817 77.1494C17.895 77.1135 17.8161 77.0608 17.7497 76.9945C17.6833 76.9281 17.6306 76.8493 17.5947 76.7626C17.5587 76.6759 17.5393 76.583 17.5393 76.4891Z" fill="#999999"/>
<path d="M124.706 107.453L47.0947 111.744C44.4828 111.887 42.3362 109.885 42.3362 107.274V47.4215C42.3362 44.8116 44.4828 42.8096 47.0947 42.9525L124.706 47.2433C126.709 47.3501 128.32 49.2806 128.32 51.5332V103.162C128.32 105.415 126.709 107.346 124.706 107.453Z" fill="#8C9BA8"/>
<path d="M84.9229 86.9159C84.415 87.4587 83.4435 87.484 82.8913 86.9684L73.328 78.0277C72.7757 77.512 72.7359 76.5404 73.2438 75.9967L75.1939 74.0019C75.6982 73.3696 76.5809 73.347 77.1368 73.9513L83.6626 79.9672L96.3603 66.3775C96.8637 65.746 97.7473 65.7234 98.3023 66.3268L100.414 68.2157C100.966 68.7314 101.006 69.703 100.498 70.2467L84.9229 86.9159Z" fill="white"/>
<path fill-rule="evenodd" clip-rule="evenodd" d="M51.533 49.2804C51.533 50.4963 50.566 51.4253 49.3501 51.3539C48.1333 51.3177 47.1673 50.2819 47.1673 49.0651C47.1646 48.7829 47.22 48.5032 47.3301 48.2434C47.4402 47.9835 47.6026 47.7491 47.8073 47.5547C48.0119 47.3603 48.2545 47.2101 48.5197 47.1133C48.785 47.0166 49.0674 46.9755 49.3492 46.9925C50.5307 47.0287 51.533 48.0645 51.533 49.2804ZM58.5812 49.5654C58.5821 49.844 58.5267 50.12 58.4182 50.3768C58.3098 50.6335 58.1505 50.8657 57.95 51.0594C57.7496 51.2531 57.512 51.4044 57.2516 51.5041C56.9912 51.6039 56.7133 51.65 56.4346 51.6397C55.254 51.6036 54.288 50.5668 54.288 49.3871C54.2872 49.1085 54.3427 48.8327 54.4512 48.576C54.5597 48.3194 54.719 48.0873 54.9194 47.8937C55.1199 47.7001 55.3574 47.5489 55.6178 47.4492C55.8781 47.3495 56.1559 47.3034 56.4346 47.3137C57.6152 47.3851 58.5812 48.3848 58.5812 49.5654ZM63.3759 51.9256C64.5212 51.9971 65.4519 51.0671 65.4519 49.8874C65.4519 48.7077 64.5212 47.7072 63.3759 47.671C62.1954 47.5986 61.2656 48.5286 61.2656 49.7092C61.2656 50.8889 62.2316 51.8894 63.3759 51.9256Z" fill="white"/>
<path fill-rule="evenodd" clip-rule="evenodd" d="M109.142 24.4321C109.236 24.4321 109.329 24.4506 109.416 24.4865C109.502 24.5224 109.581 24.5751 109.648 24.6415C109.714 24.7078 109.767 24.7866 109.803 24.8733C109.839 24.96 109.857 25.053 109.857 25.1468V27.7215C109.857 27.9111 109.782 28.093 109.648 28.2271C109.513 28.3613 109.331 28.4366 109.141 28.4366C108.952 28.4366 108.77 28.3613 108.635 28.2271C108.501 28.093 108.426 27.9111 108.426 27.7215V25.1477C108.426 25.0538 108.444 24.9608 108.48 24.874C108.516 24.7872 108.569 24.7084 108.636 24.642C108.702 24.5757 108.781 24.523 108.868 24.4872C108.955 24.4513 109.048 24.4329 109.142 24.433V24.4321ZM102.987 30.5476C102.987 30.4536 103.006 30.3605 103.042 30.2736C103.078 30.1868 103.13 30.1078 103.197 30.0414C103.263 29.9749 103.342 29.9222 103.429 29.8863C103.516 29.8503 103.609 29.8319 103.703 29.832H106.315C106.505 29.832 106.687 29.9073 106.821 30.0414C106.955 30.1754 107.031 30.3572 107.031 30.5467C107.031 30.7363 106.955 30.918 106.821 31.0521C106.687 31.1861 106.505 31.2614 106.315 31.2614H103.703C103.609 31.2615 103.516 31.2431 103.429 31.2072C103.343 31.1714 103.264 31.1188 103.197 31.0524C103.131 30.986 103.078 30.9072 103.042 30.8204C103.006 30.7336 102.987 30.6406 102.987 30.5467V30.5476ZM111.217 30.5476C111.217 30.4536 111.235 30.3605 111.271 30.2736C111.307 30.1868 111.36 30.1078 111.426 30.0414C111.493 29.9749 111.572 29.9222 111.659 29.8863C111.746 29.8503 111.839 29.8319 111.933 29.832H114.545C114.735 29.832 114.917 29.9073 115.051 30.0414C115.185 30.1754 115.26 30.3572 115.26 30.5467C115.26 30.7363 115.185 30.918 115.051 31.0521C114.917 31.1861 114.735 31.2614 114.545 31.2614H111.933C111.839 31.2615 111.746 31.2431 111.659 31.2072C111.572 31.1714 111.493 31.1188 111.427 31.0524C111.36 30.986 111.308 30.9072 111.272 30.8204C111.236 30.7336 111.217 30.6406 111.217 30.5467V30.5476ZM109.142 32.4402C109.236 32.4402 109.329 32.4587 109.416 32.4946C109.503 32.5306 109.582 32.5833 109.648 32.6498C109.714 32.7163 109.767 32.7952 109.803 32.882C109.839 32.9688 109.857 33.0618 109.857 33.1557V35.9448C109.857 36.1345 109.782 36.3164 109.648 36.4505C109.513 36.5846 109.331 36.6599 109.141 36.6599C108.952 36.6599 108.77 36.5846 108.635 36.4505C108.501 36.3164 108.426 36.1345 108.426 35.9448V33.1557C108.426 33.0618 108.444 32.9688 108.48 32.882C108.516 32.7953 108.569 32.7164 108.636 32.6501C108.702 32.5837 108.781 32.5311 108.868 32.4952C108.955 32.4593 109.048 32.44 109.142 32.4402Z" fill="#999999"/>
</svg>
