<svg width="64" height="64" viewBox="0 0 64 64" fill="none" xmlns="http://www.w3.org/2000/svg">
<path d="M6.40039 11.5199C6.40039 9.39916 8.11962 7.67993 10.2404 7.67993H40.3204C42.4412 7.67993 44.1604 9.39916 44.1604 11.5199C44.1604 13.6407 42.4412 15.3599 40.3204 15.3599H10.2404C8.11962 15.3599 6.40039 13.6407 6.40039 11.5199Z" fill="#30AA6E"/>
<path d="M6.40039 21.4399C6.40039 19.4959 7.97635 17.9199 9.92039 17.9199H40.6404C42.5844 17.9199 44.1604 19.4959 44.1604 21.4399C44.1604 23.384 42.5844 24.9599 40.6404 24.9599H9.92039C7.97635 24.9599 6.40039 23.384 6.40039 21.4399Z" fill="#30AA6E"/>
<path d="M6.40039 31.36C6.40039 29.2392 8.11962 27.52 10.2404 27.52H40.3204C42.4412 27.52 44.1604 29.2392 44.1604 31.36C44.1604 33.4808 42.4412 35.2 40.3204 35.2H10.2404C8.11962 35.2 6.40039 33.4808 6.40039 31.36Z" fill="#30AA6E"/>
<g filter="url(#filter0_b_49064_57359)">
<rect x="14.1729" y="13.7861" width="42.9899" height="43.0763" rx="16.5667" fill="#30AA6E" fill-opacity="0.1"/>
<rect x="14.6729" y="14.2861" width="41.9899" height="42.0763" rx="16.0667" stroke="white" stroke-opacity="0.3"/>
</g>
<g filter="url(#filter1_i_49064_57359)">
<path d="M44.9278 26.7282C45.8911 25.7745 47.4777 25.7745 48.4411 26.7282C49.4044 27.71 49.4044 29.2527 48.4411 30.2064L34.9829 43.5301C34.5012 44.0069 33.8779 44.2313 33.2263 44.2313C32.6029 44.2313 31.9796 44.0069 31.498 43.5301L24.7547 36.8823C23.7914 35.9005 23.7914 34.3578 24.7547 33.4041C25.718 32.4504 27.3047 32.4504 28.268 33.4041L33.2263 38.3128L44.9278 26.7282Z" fill="url(#paint0_linear_49064_57359)" fill-opacity="0.8"/>
</g>
<path d="M48.4762 26.6927L48.4767 26.6932C49.4589 27.6941 49.4596 29.2684 48.4762 30.2419L35.0181 43.5656C34.5261 44.0527 33.8897 44.2813 33.2263 44.2813C32.5909 44.2813 31.9546 44.0525 31.4629 43.5657L48.4762 26.6927ZM48.4762 26.6927C47.4934 25.7197 45.8754 25.7197 44.8926 26.6927L33.2263 38.2424L28.3032 33.3685C27.3204 32.3955 25.7023 32.3955 24.7195 33.3685C23.7362 34.3421 23.7369 35.9164 24.719 36.9173L24.7196 36.9179L31.4628 43.5656L48.4762 26.6927Z" stroke="url(#paint1_linear_49064_57359)" stroke-opacity="0.5" stroke-width="0.1"/>
<defs>
<filter id="filter0_b_49064_57359" x="-1.82715" y="-2.21387" width="74.9897" height="75.0764" filterUnits="userSpaceOnUse" color-interpolation-filters="sRGB">
<feFlood flood-opacity="0" result="BackgroundImageFix"/>
<feGaussianBlur in="BackgroundImageFix" stdDeviation="8"/>
<feComposite in2="SourceAlpha" operator="in" result="effect1_backgroundBlur_49064_57359"/>
<feBlend mode="normal" in="SourceGraphic" in2="effect1_backgroundBlur_49064_57359" result="shape"/>
</filter>
<filter id="filter1_i_49064_57359" x="23.9321" y="25.9128" width="25.3315" height="18.4185" filterUnits="userSpaceOnUse" color-interpolation-filters="sRGB">
<feFlood flood-opacity="0" result="BackgroundImageFix"/>
<feBlend mode="normal" in="SourceGraphic" in2="BackgroundImageFix" result="shape"/>
<feColorMatrix in="SourceAlpha" type="matrix" values="0 0 0 0 0 0 0 0 0 0 0 0 0 0 0 0 0 0 127 0" result="hardAlpha"/>
<feOffset/>
<feGaussianBlur stdDeviation="1"/>
<feComposite in2="hardAlpha" operator="arithmetic" k2="-1" k3="1"/>
<feColorMatrix type="matrix" values="0 0 0 0 0.188235 0 0 0 0 0.666667 0 0 0 0 0.431373 0 0 0 0.4 0"/>
<feBlend mode="normal" in2="shape" result="effect1_innerShadow_49064_57359"/>
</filter>
<linearGradient id="paint0_linear_49064_57359" x1="21.4218" y1="31.0384" x2="48.5148" y2="42.7596" gradientUnits="userSpaceOnUse">
<stop stop-color="white"/>
<stop offset="1" stop-color="white" stop-opacity="0.8"/>
</linearGradient>
<linearGradient id="paint1_linear_49064_57359" x1="43.531" y1="28.1769" x2="36.3335" y2="45.9068" gradientUnits="userSpaceOnUse">
<stop stop-color="white" stop-opacity="0.6"/>
<stop offset="1" stop-color="white" stop-opacity="0.1"/>
</linearGradient>
</defs>
</svg>
